<svg width="81" height="80" viewBox="0 0 81 80" fill="none" xmlns="http://www.w3.org/2000/svg">
<path opacity="0.3" d="M80.5 40C80.5 62.0914 62.5914 80 40.5 80C18.4086 80 0.5 62.0914 0.5 40C0.5 17.9086 18.4086 0 40.5 0C62.5914 0 80.5 17.9086 80.5 40ZM11.4071 40C11.4071 56.0675 24.4325 69.0929 40.5 69.0929C56.5675 69.0929 69.5929 56.0675 69.5929 40C69.5929 23.9325 56.5675 10.9071 40.5 10.9071C24.4325 10.9071 11.4071 23.9325 11.4071 40Z" fill="#2F2E30"/>
<circle cx="40.5" cy="40" r="29" fill="black"/>
<path d="M40.4829 22.5875C41.5044 22.5875 42.5039 22.7368 43.2573 23.0182L51.5747 26.1354H51.5757C53.7952 26.9621 55.5503 29.5077 55.5503 31.8668V44.2496C55.5503 45.3368 55.2061 46.5896 54.6235 47.7487C54.0775 48.8349 53.3401 49.8025 52.5308 50.4557L52.3677 50.5826L45.2007 55.9323L45.1948 55.9371C43.9121 56.9262 42.2235 57.4332 40.4995 57.4332C38.7768 57.4332 37.0844 56.9264 35.7642 55.9479H35.7632L28.5991 50.5992C27.7264 49.9485 26.9251 48.921 26.3423 47.7594C25.7594 46.5977 25.4165 45.3448 25.4165 44.2662V31.8668C25.4165 29.5076 27.1714 26.962 29.3911 26.1354H29.3921L37.7085 23.0182C38.4619 22.7367 39.4613 22.5875 40.4829 22.5875ZM40.5005 24.0856C39.7019 24.0878 38.875 24.195 38.2417 24.4313L38.2407 24.4323L29.9243 27.5485H29.9233C29.0958 27.8601 28.3546 28.5226 27.8237 29.2906C27.2927 30.059 26.9331 30.99 26.9331 31.8834V44.2662C26.9331 45.1607 27.2437 46.1894 27.7007 47.1012C28.1576 48.0128 28.7929 48.8727 29.5005 49.401L36.6675 54.7506C37.7293 55.5445 39.1279 55.9253 40.5015 55.9254C41.8754 55.9254 43.2777 55.5444 44.3472 54.7516L44.3491 54.7506L51.5151 49.401L51.5161 49.4C52.2309 48.864 52.8664 48.005 53.3218 47.0944C53.7771 46.1837 54.0835 45.1597 54.0835 44.2662V31.8668C54.0835 30.9808 53.7231 30.054 53.1929 29.2867C52.6624 28.5192 51.9218 27.854 51.0972 27.5338L51.0923 27.5319L42.7749 24.4147L42.7661 24.4117C42.128 24.1865 41.2999 24.0834 40.5005 24.0856Z" fill="#FAFAFA" stroke="#FAFAFA"/>
<path d="M44.9038 34.77C45.1919 34.4822 45.6754 34.482 45.9634 34.77C46.2513 35.058 46.2511 35.5415 45.9634 35.8296L38.7964 42.9966C38.6451 43.1478 38.4573 43.2163 38.2661 43.2163C38.0751 43.2162 37.888 43.1477 37.7368 42.9966L35.0532 40.313C34.7654 40.0249 34.7652 39.5414 35.0532 39.2534C35.3412 38.9654 35.8247 38.9655 36.1128 39.2534L38.2661 41.4067L38.6206 41.0532L44.9038 34.77Z" fill="#FAFAFA" stroke="#FAFAFA"/>
</svg>
